<svg viewBox="0 0 64 64" xmlns="http://www.w3.org/2000/svg"><path d="m37.8 41.3-8.2-.8a70.8 70.8 0 0 1 -14.4-2.3c-2.5-.7-4.9-1.7-7.5-2.3a8.2 8.2 0 0 0 -2.7-.2 4.6 4.6 0 0 0 -3.2 2.7c-.6 1.6-.2 3.4 0 5.1s.2 3.9.3 5.8v9.4c10.7 1.8 21.7 2.9 32.2.3.2-.1.4-.1.5-.3a.6.6 0 0 0 .1-.4v-8.9a3.2 3.2 0 0 1 .2-1.4c.3-1.1 1.2-3 2.3-2.8a17 17 0 0 0 .4-3.9z" fill="none" stroke="#fff" stroke-miterlimit="10" stroke-width="1.87"/><g fill="#fff"><path d="m63.1 37.9a5.5 5.5 0 0 0 -1.2-2.8 2.6 2.6 0 0 0 -2.1-1c-3.2.4-5.9 1.3-9 1.9s-8.3 2.2-12.6 2.4c-.5.1-1.1.1-1.4.6s-.2.5-.3.8a12.7 12.7 0 0 0 -.1 3.9 5.7 5.7 0 0 0 .4 1.4 3 3 0 0 0 1.3 1.2c1.7 1 3.9.5 5.8-.1 3.9-1.2 8-2.6 11.9-1.3 1.1.3 2.1.9 3.3 1.2a3.4 3.4 0 0 0 3.2-.7 5.3 5.3 0 0 0 1.2-3.3 19.9 19.9 0 0 0 -.4-4.2zm-21.1 4.3a.9.9 0 0 1 -.9-1 .9.9 0 0 1 1.8 0 .9.9 0 0 1 -.9 1zm8-1.3a.9.9 0 0 1 -.9-1 .9.9 0 0 1 1.8 0 .9.9 0 0 1 -.9 1zm8-1.3a.9.9 0 0 1 -.9-1 .9.9 0 0 1 1.8 0 .9.9 0 0 1 -.9 1z"/><path d="m10.9 2v2.8h-6.8v5.6h5.7v2.8h-5.7v7.7h-2.9v-18.9z"/><path d="m22.9 2v2.8h-6.8v5.2h5.4v2.7h-5.4v5.3h6.8v2.9h-9.7v-18.9z"/><path d="m39 20.9h-2.2a.6.6 0 0 1 -.6-.3 1 1 0 0 1 -.4-.5l-1.1-3.9h-6.4l-1.2 3.9c0 .2-.2.3-.3.5a.9.9 0 0 1 -.6.3h-2.3l6.1-18.9h2.9zm-10-7.2h4.9l-1.8-6.3a9.4 9.4 0 0 1 -.3-.9l-.3-1.3-.3 1.3-.3 1z"/><path d="m48.9 5.4-.3.4h-.3a.6.6 0 0 1 -.5-.2l-.6-.4-.9-.5-1.1-.2-1.1.2a1.8 1.8 0 0 0 -.7.5 1.8 1.8 0 0 0 -.5.7 3.1 3.1 0 0 0 -.1 1 2 2 0 0 0 .3 1.1 2 2 0 0 0 .8.8l1.1.5 1.3.6a5.2 5.2 0 0 1 1.3.6l1.2.9a6.4 6.4 0 0 1 .8 1.4 6.4 6.4 0 0 1 .3 2 6.1 6.1 0 0 1 -.4 2.4 6.3 6.3 0 0 1 -1 2 5.5 5.5 0 0 1 -1.7 1.3 5.6 5.6 0 0 1 -2.3.5l-1.4-.2-1.4-.5a5 5 0 0 1 -1.2-.8 5.2 5.2 0 0 1 -1.1-1l.9-1.7c.1-.1.1-.2.3-.3h.3l.6.2.7.6 1 .6a3.2 3.2 0 0 0 1.4.3 2.4 2.4 0 0 0 1.9-.7 2.8 2.8 0 0 0 .7-2.1 2.1 2.1 0 0 0 -.3-1.2 3 3 0 0 0 -.8-.8 4.3 4.3 0 0 0 -1.2-.5l-1.3-.5-1.3-.6a5.2 5.2 0 0 1 -1.1-1 3.9 3.9 0 0 1 -.8-1.4 7.3 7.3 0 0 1 -.3-2.2 6.4 6.4 0 0 1 .3-2 4 4 0 0 1 1-1.8 4 4 0 0 1 1.6-1.2 4.6 4.6 0 0 1 2.1-.4 5.1 5.1 0 0 1 2.5.5 4.8 4.8 0 0 1 2 1.4z"/><path d="m63 2v2.9h-4.7v16h-2.8v-16h-4.7v-2.9z"/><path d="m6 23.2v1.2h-3.4v2.3h2.9v1.1h-2.9v3.2h-1.4v-7.8z"/><path d="m9.1 25.4 1.1.2a1.6 1.6 0 0 1 .8.6 2.4 2.4 0 0 1 .6.8 5 5 0 0 1 .2 1.2 5 5 0 0 1 -.2 1.2 4.7 4.7 0 0 1 -.6.9l-.8.5a2.2 2.2 0 0 1 -1.1.2 2 2 0 0 1 -1.1-.2 1.9 1.9 0 0 1 -.9-.5l-.6-.9a4.9 4.9 0 0 1 -.1-1.2 4.9 4.9 0 0 1 .1-1.2l.6-.8a1.5 1.5 0 0 1 .9-.6zm0 4.6a1.2 1.2 0 0 0 1-.4 2.6 2.6 0 0 0 .3-1.4 2.3 2.3 0 0 0 -.3-1.3 1.2 1.2 0 0 0 -1-.5 1.4 1.4 0 0 0 -1.1.5 2.3 2.3 0 0 0 -.3 1.3 2.6 2.6 0 0 0 .3 1.4 1.4 1.4 0 0 0 1.1.4z"/><path d="m15.1 25.4 1.1.2a1.5 1.5 0 0 1 .9.6 2.2 2.2 0 0 1 .5.8 2.5 2.5 0 0 1 .2 1.2 2.5 2.5 0 0 1 -.2 1.2 4.1 4.1 0 0 1 -.5.9 1.9 1.9 0 0 1 -.9.5 2 2 0 0 1 -1.1.2 2.2 2.2 0 0 1 -1.1-.2l-.8-.5a2.4 2.4 0 0 1 -.6-.9 5 5 0 0 1 -.2-1.2 5 5 0 0 1 .2-1.2 1.6 1.6 0 0 1 .6-.8 1.6 1.6 0 0 1 .8-.6zm0 4.6a1.1 1.1 0 0 0 1-.4 2 2 0 0 0 .4-1.4 1.7 1.7 0 0 0 -.4-1.3 1.1 1.1 0 0 0 -1-.5 1.2 1.2 0 0 0 -1 .5 2.3 2.3 0 0 0 -.3 1.3 2.6 2.6 0 0 0 .3 1.4 1.2 1.2 0 0 0 1 .4z"/><path d="m22.7 31a.3.3 0 0 1 -.3-.3v-.5l-.4.3-.4.3-.6.2h-1.3l-.7-.6a3.9 3.9 0 0 1 -.4-.9 4.1 4.1 0 0 1 -.1-1.2 4.1 4.1 0 0 1 .1-1.1l.5-.9a1.6 1.6 0 0 1 .8-.6l.9-.2h.8l.6.4v-2.9h1.3v8zm-1.7-1 .7-.2.5-.5v-2.4a1 1 0 0 0 -.5-.4h-1.1l-.4.3-.3.6c0 .2-.1.5-.1.8s.1.6.1.9.1.4.2.5l.4.3z"/><path d="m30.9 23.2v1.2h-3.4v2.3h2.8v1.1h-2.8v3.2h-1.5v-7.8z"/><path d="m33.8 25.4 1 .2.8.4.4.8a2 2 0 0 1 .2 1.1v.4h-3.7c.1.5.2 1 .5 1.2a1.2 1.2 0 0 0 1 .4h1l.3-.2h.5l.4.4-.5.5-.6.2-.6.2h-.6a1.6 1.6 0 0 1 -1-.2 1.9 1.9 0 0 1 -.9-.5l-.6-.9a5.1 5.1 0 0 1 -.2-1.3 4.3 4.3 0 0 1 .2-1.1 2.2 2.2 0 0 1 .5-.8 2.4 2.4 0 0 1 .8-.6zm.1.9a1 1 0 0 0 -.9.4 1.3 1.3 0 0 0 -.4.9h2.4v-.5a.8.8 0 0 1 -.2-.4l-.4-.3z"/><path d="m40.5 26.5c0 .1 0 .1-.1.2h-2a.8.8 0 0 0 -.2.5.3.3 0 0 0 .1.2l.3.3h.5l.5.2.4.2a.5.5 0 0 1 .5.3l.3.4a.7.7 0 0 1 .1.5c0 .3-.1.5-.1.7a1 1 0 0 1 -.5.6l-.7.4h-1.4l-.6-.2-.4-.2a.5.5 0 0 1 -.4-.2l.3-.5.2-.2h.4l.2.2h1.3l.3-.2a.3.3 0 0 0 .1-.2v-.2a.5.5 0 0 0 -.2-.4l-.3-.2h-.4l-.5-.2-.5-.2-.4-.3-.3-.4a1.3 1.3 0 0 1 -.1-.6 1.5 1.5 0 0 1 .1-.7 1 1 0 0 1 .4-.5l.6-.4h1l1.1.2a1.8 1.8 0 0 1 .7.5z"/><path d="m43.7 31a1.2 1.2 0 0 1 -1-.4 1.2 1.2 0 0 1 -.4-1.1v-3h-.8v-.7l.8-.2.3-1.5h1v1.7h1.4v1h-1.4v2.9c0 .2 0 .3.1.4a.5.5 0 0 0 .4.2h.7l.4.7-.7.3z"/><path d="m47.7 23.9a.4.4 0 0 1 -.1.3c0 .1-.1.2-.2.3h-1.2c0-.1-.1-.2-.1-.3a.5.5 0 0 1 0-.6c0-.1.1-.2.1-.3l.3-.2h.7c.1.1.2.1.2.2s.2.2.2.3a.4.4 0 0 1 .1.3zm-.2 1.6v5.5h-1.3v-5.5z"/><path d="m51.7 31h-1.2l-2.2-5.5h1.4a.3.3 0 0 0 .1.2l1.1 2.9c0 .2.1.4.1.6a.6.6 0 0 1 .1.4.6.6 0 0 0 .1-.4c.1-.2.1-.4.2-.6l1.1-2.9a.3.3 0 0 0 .1-.2h1.3z"/><path d="m59 31h-.9a.2.2 0 0 1 -.2-.2v-.4l-.4.3-.4.2-.5.2h-1.3l-.5-.2-.3-.5a1.3 1.3 0 0 1 -.1-.6.8.8 0 0 1 .2-.7 1.2 1.2 0 0 1 .5-.5 2.3 2.3 0 0 1 1-.4l1.6-.2v-.3a1 1 0 0 0 -.3-.8.6.6 0 0 0 -.6-.3h-.6l-.3.2h-1l-.3-.5a3.8 3.8 0 0 1 2.3-.8h.9l.6.5a2.1 2.1 0 0 1 .4.6 2.9 2.9 0 0 1 .2.9zm-2.6-.9h.7l.3-.2.3-.3v-.9h-1l-.6.2-.4.3v.3c0 .2 0 .4.2.5z"/><path d="m61.7 23v8h-1.4v-8z"/><path d="m2.5 52a52.8 52.8 0 0 0 7.1 1.9 60 60 0 0 0 7.4 1.1c1.2.2 2.5.2 3.7.3s2.5.1 3.8 0a63.2 63.2 0 0 0 7.5-.6 64.6 64.6 0 0 1 -7.5 1.1c-1.2.2-2.5.2-3.8.3h-3.8a47.4 47.4 0 0 1 -7.5-.6 63.8 63.8 0 0 1 -7.6-1.5z"/></g></svg>