<svg viewBox="0 0 256 100" xmlns="http://www.w3.org/2000/svg"><path d="m143.5 26.8-28.4-2.6c-16.8-1.5-33.8-3.1-50-7.7-8.7-2.4-17.1-5.7-26-7.6a23.8 23.8 0 0 0 -9.2-.6 14.7 14.7 0 0 0 -11.1 8.9c-2.2 5.3-1 11.3-.3 17s.9 12.8 1 19.2l.7 31.1c36.9 5.9 75.1 9.8 111.5.9a2.2 2.2 0 0 0 1.7-.9 2.4 2.4 0 0 0 .3-1.5c.2-9.7.3-19.5.5-29.2a13.5 13.5 0 0 1 .6-4.9 8.2 8.2 0 0 1 9-5.3 85.5 85.5 0 0 0 -.3-16.8z" fill="none" stroke="#fff" stroke-miterlimit="10" stroke-width="5"/><g fill="#fff"><path d="m240.9 19.7c-.8-3.4-2.1-6.9-4.7-9.3s-5.2-3.9-7.9-3.4c-12 1.2-21.8 4.1-33.6 6.3-15.5 2.9-30.8 7.5-46.6 8.3-2 .1-4.3.3-5.5 1.9a5.5 5.5 0 0 0 -1 2.5 41.7 41.7 0 0 0 -.4 13.2 16.5 16.5 0 0 0 1.4 4.8 11.5 11.5 0 0 0 4.8 4.2c6.7 3.2 14.6 1.5 21.7-.4 14.6-4 30-8.9 44.5-4.5 4.1 1.2 7.9 3.1 12 4s8.8.6 12-2.1 4.2-7.2 4.4-11.3a52.4 52.4 0 0 0 -1.1-14.2zm-78.7 14.6a3.3 3.3 0 0 1 -3.3-3.3 3.4 3.4 0 0 1 6.7 0 3.3 3.3 0 0 1 -3.4 3.3zm29.7-4.3a3.4 3.4 0 0 1 0-6.7 3.4 3.4 0 0 1 0 6.7zm29.6-4.4a3.4 3.4 0 1 1 3.4-3.4 3.4 3.4 0 0 1 -3.4 3.4z"/><path d="m19.6 73.5a4.9 4.9 0 0 1 1.3.3l.8.2 1.6.4 3.3.9 6.5 1.6c4.3 1 8.7 1.9 13.1 2.7a216.7 216.7 0 0 0 26.7 3.5 185.7 185.7 0 0 0 26.9.2c4.5-.3 8.9-.9 13.3-1.6s8.9-1.8 13.2-3a120 120 0 0 1 -13.1 3.4 122 122 0 0 1 -13.3 2 188.7 188.7 0 0 1 -27.1.7 246.8 246.8 0 0 1 -27-2.7c-4.5-.6-8.9-1.4-13.3-2.3l-6.7-1.4-3.3-.8-1.6-.4-.8-.2h-.5z"/><path d="m47.2 34.8v5.5h-10.9v11.1h9.2v5.6h-9.2v15.2h-4.7v-37.4z"/><path d="m66.3 34.8v5.5h-10.9v10.4h8.6v5.4h-8.6v10.6h10.9v5.5h-15.5v-37.4z"/><path d="m92 72.2h-3.6a1.3 1.3 0 0 1 -1-.4 3.3 3.3 0 0 1 -.5-1.2l-1.9-7.6h-10.2l-1.8 7.6a3.7 3.7 0 0 1 -.5 1.1 1.1 1.1 0 0 1 -1 .5h-3.6l9.7-37.4h4.7zm-16-14.1h7.9l-3-12.5c-.2-.5-.3-1.2-.5-1.9s-.3-1.6-.5-2.5c-.1.9-.3 1.7-.4 2.5s-.3 1.4-.5 2z"/><path d="m107.7 41.6a1.5 1.5 0 0 1 -.4.8l-.6.2a1.2 1.2 0 0 1 -.8-.4l-1-.9-1.3-.9a5.3 5.3 0 0 0 -1.9-.4 4 4 0 0 0 -2.8 1.3 5.1 5.1 0 0 0 -.7 1.5 5.8 5.8 0 0 0 -.3 1.9 4.8 4.8 0 0 0 .5 2.2 4.7 4.7 0 0 0 1.3 1.5 8.1 8.1 0 0 0 1.8 1.2l2.1 1 2.1 1.3a6.6 6.6 0 0 1 1.8 1.9 6.8 6.8 0 0 1 1.3 2.7 15 15 0 0 1 .5 4 17.3 17.3 0 0 1 -.6 4.7 11.5 11.5 0 0 1 -1.7 3.9 8.1 8.1 0 0 1 -2.6 2.6 7.5 7.5 0 0 1 -3.7.9 9.1 9.1 0 0 1 -2.3-.3 10.7 10.7 0 0 1 -2.2-1 9.5 9.5 0 0 1 -1.9-1.6 11.2 11.2 0 0 1 -1.7-2l1.4-3.3a.9.9 0 0 1 .4-.6.9.9 0 0 1 .6-.3 1.4 1.4 0 0 1 .9.5l1.2 1.2a4.8 4.8 0 0 0 1.6 1.2 3.8 3.8 0 0 0 2.2.5 3.4 3.4 0 0 0 3-1.4 6.6 6.6 0 0 0 1.1-4 5.4 5.4 0 0 0 -.5-2.4 4.2 4.2 0 0 0 -1.3-1.6 7.8 7.8 0 0 0 -1.8-1.1l-2.1-.9-2.1-1.3a6.6 6.6 0 0 1 -1.8-1.9 9.7 9.7 0 0 1 -1.3-2.9 17.5 17.5 0 0 1 -.5-4.3 13.4 13.4 0 0 1 .6-4 9.5 9.5 0 0 1 1.5-3.4 8.5 8.5 0 0 1 2.6-2.4 5.7 5.7 0 0 1 3.4-1 8 8 0 0 1 4 1.1 8.6 8.6 0 0 1 3.1 2.9z"/><path d="m130.2 34.8v5.7h-7.4v31.7h-4.6v-31.7h-7.5v-5.7z"/><path d="m157.5 54.3v2.3h-6.6v4.4h5.6v2.2h-5.6v6.1h-2.8v-15z"/><path d="m163.5 58.5a6.5 6.5 0 0 1 2.1.4 5 5 0 0 1 1.7 1.1 6 6 0 0 1 1.4 4 5.6 5.6 0 0 1 -.4 2.3 4.8 4.8 0 0 1 -1 1.7 3.9 3.9 0 0 1 -1.7 1.1 4.6 4.6 0 0 1 -2.1.4 5.4 5.4 0 0 1 -2.2-.4 4.5 4.5 0 0 1 -1.7-1.1 4.8 4.8 0 0 1 -1-1.7 5.6 5.6 0 0 1 -.4-2.3 6 6 0 0 1 1.4-4 6.2 6.2 0 0 1 1.7-1.1 7.8 7.8 0 0 1 2.2-.4zm0 9a2.1 2.1 0 0 0 1.9-.9 3.8 3.8 0 0 0 .7-2.6 4 4 0 0 0 -.7-2.6 2.1 2.1 0 0 0 -1.9-.9 2.3 2.3 0 0 0 -2 .9 4 4 0 0 0 -.7 2.6 3.8 3.8 0 0 0 .7 2.6 2.3 2.3 0 0 0 2 .9z"/><path d="m175.3 58.5a6.5 6.5 0 0 1 2.1.4 5 5 0 0 1 1.7 1.1 6 6 0 0 1 1.4 4 5.6 5.6 0 0 1 -.4 2.3 4.8 4.8 0 0 1 -1 1.7 3.9 3.9 0 0 1 -1.7 1.1 4.6 4.6 0 0 1 -2.1.4 5.1 5.1 0 0 1 -2.2-.4 3.9 3.9 0 0 1 -1.7-1.1 4.8 4.8 0 0 1 -1-1.7 5.6 5.6 0 0 1 -.4-2.3 6 6 0 0 1 1.4-4 5 5 0 0 1 1.7-1.1 7.2 7.2 0 0 1 2.2-.4zm0 9a2.2 2.2 0 0 0 1.9-.9 3.8 3.8 0 0 0 .7-2.6 4 4 0 0 0 -.7-2.6 2.2 2.2 0 0 0 -1.9-.9 2.3 2.3 0 0 0 -2 .9 4 4 0 0 0 -.7 2.6 3.8 3.8 0 0 0 .7 2.6 2.3 2.3 0 0 0 2 .9z"/><path d="m190 69.3a.8.8 0 0 1 -.7-.4l-.2-1-.7.6-.7.5-.9.4h-1.1a3.6 3.6 0 0 1 -2.8-1.4 4.5 4.5 0 0 1 -.8-1.7 8.5 8.5 0 0 1 -.3-2.3 7.3 7.3 0 0 1 .3-2.2 5.1 5.1 0 0 1 .9-1.8 4.4 4.4 0 0 1 1.5-1.2 3.8 3.8 0 0 1 1.9-.4 3.7 3.7 0 0 1 1.5.3 2.8 2.8 0 0 1 1.1.8v-5.6h2.6v15.4zm-3.4-1.8a1.8 1.8 0 0 0 1.3-.4 3.1 3.1 0 0 0 1.1-.9v-4.8a2.8 2.8 0 0 0 -.9-.7 2.3 2.3 0 0 0 -1.1-.2 2 2 0 0 0 -1.1.2 1.6 1.6 0 0 0 -.8.6 3.3 3.3 0 0 0 -.5 1.2 6.3 6.3 0 0 0 -.2 1.6 6.1 6.1 0 0 0 .2 1.5 2.8 2.8 0 0 0 .4 1.1 1.3 1.3 0 0 0 .7.6z"/><path d="m157.5 73v2.2h-6.6v4.5h5.6v2.2h-5.6v6.1h-2.8v-15z"/><path d="m163.3 77.2a5.8 5.8 0 0 1 1.9.3 4.5 4.5 0 0 1 1.4 1 4 4 0 0 1 1 1.5 6.4 6.4 0 0 1 .3 2v.5a.4.4 0 0 1 -.1.3c0 .1-.1.1-.2.2h-6.8a3.3 3.3 0 0 0 .8 2.4 3 3 0 0 0 2.1.8l1.1-.2a1.5 1.5 0 0 0 .7-.3l.6-.3h.8l.2.2.7.9c-.2.4-.6.6-.9.9l-1.1.5-1.2.3h-1.2a4.5 4.5 0 0 1 -2-.4 3.9 3.9 0 0 1 -1.7-1.1 7.8 7.8 0 0 1 -1.1-1.8 6.1 6.1 0 0 1 -.4-2.4 4.9 4.9 0 0 1 .4-2.1 3.4 3.4 0 0 1 1-1.6 4 4 0 0 1 1.6-1.2 4.6 4.6 0 0 1 2.1-.4zm.1 1.8a2.5 2.5 0 0 0 -1.8.7 3 3 0 0 0 -.8 1.8h4.8a3.1 3.1 0 0 0 -.1-1 1.6 1.6 0 0 0 -.4-.7 2 2 0 0 0 -.7-.6z"/><path d="m176.3 79.5-.2.2h-.3l-.4-.2-.5-.2-.6-.2h-.9a1.6 1.6 0 0 0 -1.1.3 1 1 0 0 0 -.5.8.8.8 0 0 0 .2.6l.6.4.9.3.9.3 1 .4a2.4 2.4 0 0 1 .8.6 1.3 1.3 0 0 1 .6.7 2.2 2.2 0 0 1 .2 1.1 3.7 3.7 0 0 1 -.3 1.5 2.1 2.1 0 0 1 -.8 1.1 4 4 0 0 1 -1.3.7 4.8 4.8 0 0 1 -1.8.3h-1.1l-1-.3-.9-.4-.7-.5.6-1c0-.1.1-.2.2-.3h.4l.5.2.5.3.6.3h1.8l.5-.3a.5.5 0 0 0 .3-.4.9.9 0 0 0 .1-.5.7.7 0 0 0 -.2-.6.9.9 0 0 0 -.6-.4l-.8-.3-1-.3-1-.4-.8-.6-.6-.8a5 5 0 0 1 -.2-1.2 2.8 2.8 0 0 1 .3-1.3 2.3 2.3 0 0 1 .7-1 4 4 0 0 1 1.3-.7 4.3 4.3 0 0 1 1.7-.3 4.5 4.5 0 0 1 2 .4 3.8 3.8 0 0 1 1.5.9z"/><path d="m182.6 88.2a3.1 3.1 0 0 1 -2.2-.8 3.4 3.4 0 0 1 -.7-2.2v-5.9h-1.4a.8.8 0 0 1 -.2-.4v-1.2l1.7-.2.6-2.9a.5.5 0 0 1 .2-.4h1.7v3.4h2.8v1.8h-2.8v5.8c0 .3 0 .6.2.7a.9.9 0 0 0 .7.3h.4l.3-.2h.5l.2.2.8 1.2a2.4 2.4 0 0 1 -1.3.7z"/><path d="m190.2 74.3a1.3 1.3 0 0 1 -.1.6 2.9 2.9 0 0 1 -.9.9h-1.3l-.5-.4-.3-.5a1.4 1.4 0 0 1 -.2-.6 1.4 1.4 0 0 1 .2-.7l.3-.5.5-.3.7-.2.6.2.5.3.4.5a1.5 1.5 0 0 1 .1.7zm-.4 3.1v10.6h-2.5v-10.6z"/><path d="m198.1 88h-2.4l-4.2-10.6h2.6l.3.4 2 5.6.3 1a3 3 0 0 1 .2 1 4.4 4.4 0 0 0 .2-1l.3-1 2.2-5.6a.5.5 0 0 1 .2-.4h2.5z"/><path d="m212.1 88h-1.7l-.3-.4-.2-.8-.8.6-.8.5-.9.3h-1l-1.3-.2a3.1 3.1 0 0 1 -1-.5 4.7 4.7 0 0 1 -.6-.9 2.7 2.7 0 0 1 -.2-1.3 2.7 2.7 0 0 1 .3-1.2 3.3 3.3 0 0 1 1-1.1 7.7 7.7 0 0 1 2-.7 8.7 8.7 0 0 1 3-.4v-.6a2.5 2.5 0 0 0 -.4-1.6 1.9 1.9 0 0 0 -1.3-.5h-1.1l-.7.4-.6.3h-1l-.3-.3-.4-.8a6 6 0 0 1 4.4-1.7 4.7 4.7 0 0 1 1.7.3 5 5 0 0 1 1.2.8 5.7 5.7 0 0 1 .8 1.3 8.8 8.8 0 0 1 .2 1.7zm-4.9-1.6h.7l.6-.2.6-.3c.2-.2.4-.3.5-.5v-1.9h-1.8l-1.2.4c-.3.2-.6.3-.7.5a1.4 1.4 0 0 0 -.2.7 1 1 0 0 0 .4.9 1.8 1.8 0 0 0 1.1.4z"/><path d="m217.4 72.6v15.4h-2.6v-15.4z"/></g></svg>