<svg viewBox="0 0 256 256" xmlns="http://www.w3.org/2000/svg"><path d="m143.5 105.1-28.4-2.6c-16.8-1.6-33.8-3.1-50-7.7-8.7-2.5-17.1-5.8-26-7.7a25.9 25.9 0 0 0 -9.2-.6 14.8 14.8 0 0 0 -11.1 9c-2.2 5.3-1 11.3-.3 16.9s.9 12.8 1 19.2l.7 31.1c36.9 5.9 75.1 9.8 111.5 1 .6-.2 1.4-.4 1.7-.9a2.7 2.7 0 0 0 .3-1.5c.2-9.8.3-19.5.5-29.3a12.9 12.9 0 0 1 .6-4.8 8.2 8.2 0 0 1 9-5.4 84.5 84.5 0 0 0 -.3-16.7z" fill="none" stroke="#fff" stroke-miterlimit="10" stroke-width="1.13"/><g fill="#fff"><path d="m240.9 98c-.8-3.5-2.1-7-4.7-9.4s-5.2-3.8-7.9-3.3c-12 1.2-21.8 4.1-33.6 6.3-15.5 2.9-30.8 7.5-46.6 8.2-2 .1-4.3.3-5.5 1.9a5.9 5.9 0 0 0 -1 2.6 41.1 41.1 0 0 0 -.4 13.1 14.9 14.9 0 0 0 1.4 4.8 10.8 10.8 0 0 0 4.8 4.2c6.7 3.3 14.6 1.6 21.7-.4 14.6-4 30-8.9 44.5-4.5 4.1 1.2 7.9 3.2 12 4.1s8.8.6 12-2.2 4.2-7.1 4.4-11.3a51.4 51.4 0 0 0 -1.1-14.1zm-78.7 14.6a3.4 3.4 0 0 1 0-6.7 3.4 3.4 0 1 1 0 6.7zm29.7-4.4a3.4 3.4 0 0 1 0-6.7 3.4 3.4 0 0 1 0 6.7zm29.6-4.4a3.4 3.4 0 0 1 0-6.7 3.4 3.4 0 1 1 0 6.7z"/><path d="m19.6 151.8 1.3.2.8.2 1.6.5 3.3.8 6.5 1.7c4.3 1 8.7 1.9 13.1 2.7a263.4 263.4 0 0 0 26.7 3.5 185.7 185.7 0 0 0 26.9.1 117.8 117.8 0 0 0 13.3-1.6 97.2 97.2 0 0 0 13.2-3 120.5 120.5 0 0 1 -13.1 3.5c-4.4.8-8.9 1.5-13.3 2a204.4 204.4 0 0 1 -27.1.7 246.8 246.8 0 0 1 -27-2.7c-4.5-.7-8.9-1.5-13.3-2.4l-6.7-1.4-3.3-.7-1.6-.4-.8-.2h-.5z"/><path d="m47.2 118.3v3.6h-10.9v7.3h9.2v3.7h-9.2v10h-4.7v-24.6z"/><path d="m66.3 118.3v3.6h-10.9v6.8h8.6v3.6h-8.6v6.9h10.9v3.7h-15.5v-24.6z"/><path d="m92 142.9h-3.6a1.7 1.7 0 0 1 -1-.3 1.8 1.8 0 0 1 -.5-.7l-1.9-5.1h-10.2l-1.8 5.1-.5.7a1.7 1.7 0 0 1 -1 .3h-3.6l9.7-24.6h4.7zm-16-9.3h7.9l-3-8.2c-.2-.4-.3-.8-.5-1.3a14.2 14.2 0 0 0 -.5-1.6c-.1.6-.3 1.1-.4 1.6a8.9 8.9 0 0 1 -.5 1.3z"/><path d="m107.7 122.7a.9.9 0 0 1 -.4.6h-.6l-.8-.2-1-.6-1.3-.6a5.4 5.4 0 0 0 -1.9-.3 3.8 3.8 0 0 0 -1.6.3 2.6 2.6 0 0 0 -1.9 1.6 2.7 2.7 0 0 0 -.3 1.2 2.5 2.5 0 0 0 .5 1.5 4.5 4.5 0 0 0 1.3 1l1.8.7 2.1.7 2.1.8a8.3 8.3 0 0 1 1.8 1.3 4.6 4.6 0 0 1 1.3 1.8 6.7 6.7 0 0 1 .5 2.6 8.1 8.1 0 0 1 -.6 3.1 7.3 7.3 0 0 1 -1.7 2.6 9.8 9.8 0 0 1 -2.6 1.7 10.6 10.6 0 0 1 -3.7.6l-2.3-.2-2.2-.7-1.9-1-1.7-1.4 1.4-2.2.4-.4h.6l.9.3 1.2.8 1.6.8a6.9 6.9 0 0 0 2.2.3 4.5 4.5 0 0 0 3-.9 3.4 3.4 0 0 0 1.1-2.7 3 3 0 0 0 -.5-1.6 4.5 4.5 0 0 0 -1.3-1 7.5 7.5 0 0 0 -1.8-.7l-2.1-.6-2.1-.8a8.3 8.3 0 0 1 -1.8-1.3 5.3 5.3 0 0 1 -1.3-1.9 7.8 7.8 0 0 1 -.5-2.8 6.6 6.6 0 0 1 .6-2.7 5.4 5.4 0 0 1 1.5-2.2 7.6 7.6 0 0 1 2.6-1.6 9 9 0 0 1 3.4-.6 10.5 10.5 0 0 1 4 .7 8.1 8.1 0 0 1 3.1 1.9z"/><path d="m130.2 118.3v3.7h-7.4v20.9h-4.6v-20.9h-7.5v-3.7z"/><path d="m157.5 132.6v2.2h-6.6v4.5h5.6v2.2h-5.6v6.1h-2.8v-15z"/><path d="m163.5 136.8a4.6 4.6 0 0 1 2.1.4 3.9 3.9 0 0 1 1.7 1.1 4 4 0 0 1 1 1.7 5.6 5.6 0 0 1 .4 2.3 5.1 5.1 0 0 1 -.4 2.2 5.2 5.2 0 0 1 -1 1.8 7.1 7.1 0 0 1 -1.7 1.1 6.5 6.5 0 0 1 -2.1.4 7.8 7.8 0 0 1 -2.2-.4l-1.7-1.1a5.2 5.2 0 0 1 -1-1.8 5.1 5.1 0 0 1 -.4-2.2 5.6 5.6 0 0 1 .4-2.3 4 4 0 0 1 1-1.7 4.5 4.5 0 0 1 1.7-1.1 5.4 5.4 0 0 1 2.2-.4zm0 9a2.1 2.1 0 0 0 1.9-.9 4 4 0 0 0 .7-2.6 3.8 3.8 0 0 0 -.7-2.6 2 2 0 0 0 -1.9-1 2.3 2.3 0 0 0 -2 1 3.8 3.8 0 0 0 -.7 2.6 4 4 0 0 0 .7 2.6 2.3 2.3 0 0 0 2 .9z"/><path d="m175.3 136.8a4.6 4.6 0 0 1 2.1.4 3.9 3.9 0 0 1 1.7 1.1 4 4 0 0 1 1 1.7 5.6 5.6 0 0 1 .4 2.3 5.1 5.1 0 0 1 -.4 2.2 5.2 5.2 0 0 1 -1 1.8 7.1 7.1 0 0 1 -1.7 1.1 6.5 6.5 0 0 1 -2.1.4 5.4 5.4 0 0 1 -3.9-1.5 5.2 5.2 0 0 1 -1-1.8 5.1 5.1 0 0 1 -.4-2.2 5.6 5.6 0 0 1 .4-2.3 4 4 0 0 1 1-1.7 3.9 3.9 0 0 1 1.7-1.1 5.1 5.1 0 0 1 2.2-.4zm0 9a2.2 2.2 0 0 0 1.9-.9 4 4 0 0 0 .7-2.6 3.8 3.8 0 0 0 -.7-2.6 2.1 2.1 0 0 0 -1.9-1 2.3 2.3 0 0 0 -2 1 3.8 3.8 0 0 0 -.7 2.6 4 4 0 0 0 .7 2.6 2.3 2.3 0 0 0 2 .9z"/><path d="m190 147.6c-.3 0-.5-.2-.7-.5l-.2-1a2.3 2.3 0 0 1 -.7.7l-.7.5-.9.3-1.1.2a4.2 4.2 0 0 1 -1.6-.4 3.2 3.2 0 0 1 -1.2-1.1 3.8 3.8 0 0 1 -.8-1.7 7.5 7.5 0 0 1 -.3-2.3 7.8 7.8 0 0 1 .3-2.2 5.1 5.1 0 0 1 .9-1.8 4.2 4.2 0 0 1 1.5-1.1 3.8 3.8 0 0 1 1.9-.4l1.5.2 1.1.8v-5.6h2.6v15.4zm-3.4-1.9a2.5 2.5 0 0 0 1.3-.3 2.6 2.6 0 0 0 1.1-1v-4.7a3.2 3.2 0 0 0 -.9-.8l-1.1-.2-1.1.2a2.7 2.7 0 0 0 -.8.7 3.7 3.7 0 0 0 -.5 1.1 7.8 7.8 0 0 0 -.2 1.6 7 7 0 0 0 .2 1.6 2.3 2.3 0 0 0 .4 1 1.3 1.3 0 0 0 .7.6 1.5 1.5 0 0 0 .9.2z"/><path d="m157.5 151.3v2.2h-6.6v4.4h5.6v2.3h-5.6v6.1h-2.8v-15z"/><path d="m163.3 155.5a5.8 5.8 0 0 1 1.9.3 4.2 4.2 0 0 1 1.4.9 4 4 0 0 1 1 1.5 6.6 6.6 0 0 1 .3 2.1v.5a.4.4 0 0 1 -.1.3h-.2c0 .1-.1.1-.3.1h-6.5a3.3 3.3 0 0 0 .8 2.4 3 3 0 0 0 2.1.7h1.1l.7-.3.6-.3.5-.2h.5l.7 1a3.4 3.4 0 0 1 -.9.8l-1.1.6-1.2.2h-1.2a6.4 6.4 0 0 1 -2-.3 7.1 7.1 0 0 1 -1.7-1.1 7.8 7.8 0 0 1 -1.1-1.8 6.2 6.2 0 0 1 -.4-2.5 4.5 4.5 0 0 1 .4-2 3.7 3.7 0 0 1 1-1.7 3.8 3.8 0 0 1 1.6-1.1 4.6 4.6 0 0 1 2.1-.1zm.1 1.8a2.4 2.4 0 0 0 -1.8.6 3 3 0 0 0 -.8 1.8h4.8a2.8 2.8 0 0 0 -.1-.9 2 2 0 0 0 -.4-.8 1.8 1.8 0 0 0 -.7-.5z"/><path d="m176.3 157.7a.2.2 0 0 1 -.2.2h-.7l-.5-.2-.6-.3h-.9a1.6 1.6 0 0 0 -1.1.3c-.3.3-.5.5-.5.9a1.4 1.4 0 0 0 .2.6l.6.4.9.3.9.3 1 .4.8.5a1.6 1.6 0 0 1 .6.8 2 2 0 0 1 .2 1.1 3.2 3.2 0 0 1 -.3 1.4 2.1 2.1 0 0 1 -.8 1.1 4.1 4.1 0 0 1 -1.3.8l-1.8.2h-1.1l-1-.2-.9-.5a1.8 1.8 0 0 1 -.7-.5l.6-.9c0-.2.1-.3.2-.3h.9l.5.3.6.3h1.8a.5.5 0 0 0 .5-.3c.2-.1.3-.2.3-.4a.6.6 0 0 0 .1-.4.8.8 0 0 0 -.2-.7l-.6-.4-.8-.3-1-.3-1-.4a2.1 2.1 0 0 1 -.8-.6l-.6-.8a3.7 3.7 0 0 1 -.2-1.2 2.7 2.7 0 0 1 .3-1.2 2.6 2.6 0 0 1 .7-1.1 4 4 0 0 1 1.3-.7 4.4 4.4 0 0 1 1.7-.2 6.4 6.4 0 0 1 2 .3 5.6 5.6 0 0 1 1.5 1z"/><path d="m182.6 166.4a2.7 2.7 0 0 1 -2.2-.8 3.3 3.3 0 0 1 -.7-2.1v-6h-1.4a.5.5 0 0 1 -.2-.4v-1l1.7-.3.6-2.9c0-.1.1-.2.2-.3h1.7v3.3h2.8v1.8h-2.8v5.8a1.1 1.1 0 0 0 .2.8.9.9 0 0 0 .7.3h1.4l.8 1.3-1.3.7a3.9 3.9 0 0 1 -1.5-.2z"/><path d="m190.2 152.5c0 .2 0 .5-.1.6a2.1 2.1 0 0 1 -.4.6l-.5.3h-1.3l-.5-.3-.3-.6a1.1 1.1 0 0 1 -.2-.6 1.4 1.4 0 0 1 .2-.6l.3-.5.5-.4h1.3a2.9 2.9 0 0 1 .9.9 1.3 1.3 0 0 1 .1.6zm-.4 3.1v10.7h-2.5v-10.7z"/><path d="m198.1 166.3h-2.4l-4.2-10.7h2.1l.5.2.3.3 2 5.7.3 1a2.9 2.9 0 0 1 .2.9 2.9 2.9 0 0 0 .2-.9l.3-1 2.2-5.7c0-.1.1-.3.2-.3l.5-.2h2z"/><path d="m212.1 166.3h-1.7l-.3-.5-.2-.7-.8.6-.8.5-.9.2h-2.3l-1-.6a2 2 0 0 1 -.6-.9 2.7 2.7 0 0 1 -.2-1.3 2.7 2.7 0 0 1 .3-1.2 3.1 3.1 0 0 1 1-1 7.6 7.6 0 0 1 2-.8 12.6 12.6 0 0 1 3-.3v-.6a2.2 2.2 0 0 0 -.4-1.6 1.5 1.5 0 0 0 -1.3-.5h-1.1l-.7.3-.6.3-.5.2h-.5l-.3-.4-.4-.8a6.4 6.4 0 0 1 4.4-1.7 4.7 4.7 0 0 1 1.7.3 3.4 3.4 0 0 1 1.2.9 4.1 4.1 0 0 1 .8 1.3 7.8 7.8 0 0 1 .2 1.6zm-4.9-1.6h.7l.6-.2.6-.4a1.2 1.2 0 0 0 .5-.5v-1.7h-1.8a3.4 3.4 0 0 0 -1.2.4 1.3 1.3 0 0 0 -.7.5 1.4 1.4 0 0 0 -.2.6 1.1 1.1 0 0 0 .4 1 1.8 1.8 0 0 0 1.1.3z"/><path d="m217.4 150.9v15.4h-2.6v-15.4z"/></g></svg>