<svg enable-background="new 0 0 64 64" viewBox="0 0 64 64" xmlns="http://www.w3.org/2000/svg"><path d="m64 32c0 17.7-14.3 32-32 32s-32-14.3-32-32 14.3-32 32-32 32 14.3 32 32" fill="#ee3424"/><path d="m11.1 41.6c.6-2.6 1.1-8.5 1.9-15.5h2.5l.2-1.1h-2.5c.2-2.2.6-6.8 2.7-7.7.5.9 1.1 1.7 2.2 1.7.8 0 1.4-.3 1.4-1.1 0-1.2-1.8-1.6-2.7-1.7-1.7 0-6.5.6-7.7 7.1l-.3 1.7h-2l-.2 1.1h2c-.6 5.2-1.7 15.5-2.1 16.9-.7 3.1-.9 3.8-2.5 4.7.2.3.4.7.6 1 2.7-.9 5.7-3.3 6.5-7.1m13.8-11.2c0-1.3-.1-4.4-2-4.4-2.8 0-3.2 5.4-3.2 7.4 0 1.3.1 4.3 2 4.3 2.8.1 3.2-5.3 3.2-7.3m-9.6 3.8c0-5 3.3-9.3 8.7-9.3 3.3 0 5.3 1.5 5.3 4.7 0 5-3.3 9.3-8.7 9.3-3.3 0-5.3-1.5-5.3-4.7m24.7-3.8c0-1.3-.1-4.4-2-4.4-2.8 0-3.2 5.4-3.2 7.4 0 1.3.1 4.3 2 4.3 2.8.1 3.2-5.3 3.2-7.3m-9.6 3.8c0-5 3.3-9.3 8.7-9.3 3.3 0 5.3 1.5 5.3 4.7 0 5-3.3 9.3-8.7 9.3-3.3 0-5.3-1.5-5.3-4.7m23.5-1.4c.7-1.9 1-3.6 1.4-6.4-.2-.1-.3-.1-.5-.1-3.3 0-4.9 4.8-4.9 7.5 0 .7.2 2.3 1.1 2.3 1.3 0 2.5-2.3 2.9-3.3m6.9 4.5c-1.9.9-4.2 1.7-5.8 1.7-.8 0-.8-1.3-.8-1.8 0-.6.1-1.5.2-3.2l-.1-.1c-1.1 2.2-3.2 5.1-5.9 5.1-2.2 0-3.1-2.3-3.1-4.1 0-4.7 3.7-9.7 9-9.7h1.1c.4-3.3.5-4.7.5-5.7 0-.3 0-.6-.4-.6-.3 0-.7.1-1.8.4l-.3-.9c2.1-.8 4.5-1.2 6.6-1.3.3 0 .4 0 .4.5 0 2.8-2.1 17.1-2.1 18.6 0 .4 0 .9.4.9.2 0 .9-.2 1.8-.6zm-41 9.1v-3.9h.8v.4c.3-.2.7-.5 1.2-.5.8 0 1.1.5 1.1 1.3v2.6h-.9v-2.5c0-.5-.2-.7-.5-.7-.4 0-.7.2-.9.4v2.8zm7.2-2.5c0-.5-.3-.8-.7-.8s-.7.3-.7.8zm-1.5.7c0 .8.4 1.1.8 1.1s.6-.2.9-.5l.7.4c-.4.6-.9.8-1.6.8-1 0-1.6-.8-1.6-2s.6-2 1.7-2c1 0 1.6.8 1.6 1.8v.4zm4.1-2.1v-1.3h.9v1.3h.8v.7h-.8v2.2c0 .2.1.3.3.3.1 0 .3 0 .4-.1v.8c-.3 0-.5.1-.7.1-.7 0-.9-.3-.9-.9v-2.3h-.5v-.7zm5.2 1.4-.6 2.4h-.8l-1-3.9h.9l.5 2.4.6-2.4h.9l.5 2.4.6-2.4h.9l-1 3.9h-.8zm5.3-.7c-.5 0-.8.4-.8 1.3s.2 1.3.8 1.3c.5 0 .8-.4.8-1.3-.1-.9-.3-1.3-.8-1.3m0-.8c1.1 0 1.7.8 1.7 2s-.6 2-1.7 2c-1 0-1.7-.8-1.7-2s.6-2 1.7-2m3.1 4v-3.9h.8v.7c.2-.5.5-.7 1.1-.7v1s-.1 0-.2 0c-.5 0-.9.5-.9.6v2.4zm4.4 0h-.9v-5.4h.9v3l1.1-1.5h1.1l-1.1 1.4 1.2 2.4h-1l-.9-1.7-.5.5z" fill="#fff"/></svg>