<svg viewBox="0 0 24 24" xmlns="http://www.w3.org/2000/svg"><circle cx="12" cy="12" fill="#fff" r="12"/><path d="m14.8 6.3h-5.6a2.7 2.7 0 0 0 -2.9 2.9v5.6a2.7 2.7 0 0 0 2.9 2.9h5.6a2.7 2.7 0 0 0 2.9-2.9v-5.6a2.7 2.7 0 0 0 -2.9-2.9zm-2.8 9.3a3.6 3.6 0 1 1 3.6-3.6 3.6 3.6 0 0 1 -3.6 3.6zm3.7-6.5a.8.8 0 0 1 -.8-.8.9.9 0 0 1 .8-.8.8.8 0 0 1 .8.8c.1.4-.3.8-.8.8zm-1.4 2.9a2.3 2.3 0 1 1 -2.3-2.3 2.3 2.3 0 0 1 2.3 2.3zm-2.3-12a12 12 0 1 0 12 12 12 12 0 0 0 -12-12zm7 14.9a3.9 3.9 0 0 1 -4.1 4.1h-5.8a3.9 3.9 0 0 1 -4.1-4.1v-5.8a3.9 3.9 0 0 1 4.1-4.1h5.8a3.9 3.9 0 0 1 4.1 4.1z" fill="#00bbb8"/></svg>