<svg viewBox="0 0 24 24" xmlns="http://www.w3.org/2000/svg"><circle cx="12" cy="12" fill="#fff" r="12"/><path d="m12 0a12 12 0 0 0 -4.4 23.2 12.9 12.9 0 0 1 0-3.4l1.4-6a5.7 5.7 0 0 1 -.3-1.8c0-1.7 1-2.9 2.2-2.9a1.5 1.5 0 0 1 1.5 1.7 29 29 0 0 1 -1 4 1.8 1.8 0 0 0 1.8 2.2c2.1 0 3.8-2.2 3.8-5.5a4.8 4.8 0 0 0 -5-4.9 5.2 5.2 0 0 0 -5.4 5.2 4.6 4.6 0 0 0 .9 2.7.4.4 0 0 1 .1.3l-.3 1.4c-.1.2-.2.3-.4.2s-2.4-2.9-2.4-4.6c0-3.8 2.8-7.3 7.9-7.3s7.4 3 7.4 6.9-2.6 7.5-6.2 7.5a3.2 3.2 0 0 1 -2.8-1.4l-.7 2.9a12.8 12.8 0 0 1 -1.5 3.1 12 12 0 0 0 15.4-11.5 12 12 0 0 0 -12-12z" fill="#00bbb8" fill-rule="evenodd"/></svg>