<svg enable-background="new 0 0 64 64" viewBox="0 0 64 64" xmlns="http://www.w3.org/2000/svg"><g clip-rule="evenodd" fill-rule="evenodd"><path d="m-.2 0h64.2v64.2h-64.2z" fill="#fff"/><path d="m10.6 24h2.3v2.7h2.3v1.6h-2.3v4c0 .9 0 1.5.8 1.5h1.6v1.6c-.7.1-1.1.1-1.7.1-2.8 0-3-.9-3-2.6zm6.7 2.7h2.3v1.6h.1c.5-.9 1.5-1.9 3.2-1.9.4 0 .7 0 .9.1v2.2c-.7-.1-1.1-.1-1.5-.1-1.2 0-2.8.5-2.8 2.6v4.3h-2.3zm14.7 5.3c0 1.9-2 2.3-3.2 2.3-.8 0-1.9-.1-1.9-1.3 0-.7.4-1.1 2.2-1.3 1.6-.1 2.3-.3 3-.5zm2.3-2.7c0-1.1-.1-3-4.7-3-2.6 0-4.3.7-4.6 3.1h2.2c.1-1.1.9-1.5 2.4-1.5 1.3 0 2.6.3 2.6 1.2 0 .7-.4.8-3.6 1.1-1.5.1-4 .4-4 2.8 0 1.7 1.3 2.7 3.6 2.7 2.6 0 3.6-.8 4.2-1.2 0 .4.1 1.2 1.6 1.2.8 0 1.2-.1 1.6-.3v-1.6c-.1 0-.5.1-.7.1s-.5-.1-.5-.5zm1.2-2.6h2.5l2.6 6.5 2.7-6.5h2.7l-4 8.7h-2.6zm13.3 3.5c.4-1.9 1.9-2.3 3-2.3s2.6.5 3 2.3zm8.2 1.4v-.3c0-2.6-1.5-5-5.4-5-3.1 0-5.2 1.9-5.2 4.8 0 2.3 1.5 4.6 5.4 4.6 3.4 0 4.6-1.9 5.1-2.8h-2.6c-.4.7-1.1 1.2-2.6 1.2-2.3 0-3-1.5-3-2.6zm1.9-7.6h2.3v11.4h-2.3z" fill="#0093bf"/><path d="m5.4 29.9c0 .7-.5 1.3-1.3 1.3s-1.3-.7-1.3-1.3c0-.8.5-1.5 1.3-1.5.7.1 1.3.7 1.3 1.5zm0-4.8c0 .8-.5 1.3-1.3 1.3s-1.3-.5-1.3-1.3c0-.7.5-1.3 1.3-1.3.7 0 1.3.6 1.3 1.3zm4 2.4c0 .7-.5 1.3-1.3 1.3s-1.3-.7-1.3-1.3c0-.8.5-1.3 1.3-1.3s1.3.5 1.3 1.3zm22.5 13.3c-.4 1.2-1.2 1.7-2.3 1.7-1.7 0-2.4-1.2-2.4-2.3 0-1.3.8-2.4 2.4-2.4 1.1 0 2 .5 2.2 1.6h-.8c-.1-.5-.5-.9-1.3-.9-1.1 0-1.5.7-1.5 1.6s.4 1.7 1.5 1.7c.8 0 1.2-.4 1.3-1.1zm.8-4.1h.8v2c.4-.7 1.1-.8 1.7-.8 1.1 0 1.9.4 1.9 1.5v3.1h-.8v-2.8c0-.7-.4-1.1-1.3-1.1-.8 0-1.5.4-1.5 1.3v2.6h-.8zm8.8 4c0 .7-.8 1.2-1.7 1.2-.5 0-.9-.3-.9-.7 0-.5.3-.7.9-.8h.9c.5-.1.7-.1.8-.3zm-2.5-1.3c0-.7.5-.8 1.3-.8.7 0 1.2.1 1.2.7 0 .4-.3.5-.7.5l-1.1.1c-1.3.1-1.9.5-1.9 1.3 0 .5.4 1.3 1.9 1.3.7 0 1.5-.3 1.9-.8 0 .5.3.7.7.7h.7v-.7c-.1 0-.3.1-.3.1-.3 0-.4-.1-.4-.4v-2.4c0-.9-1.1-1.2-2-1.2-1.3 0-2 .4-2.2 1.5zm4.7-1.4h.8v.7c.4-.7 1.1-.8 1.7-.8 1.1 0 1.9.4 1.9 1.5v3.1h-.9v-2.8c0-.7-.4-1.1-1.2-1.1s-1.5.4-1.5 1.3v2.6h-.8zm5.5 0h.8v.7c.4-.7 1.1-.8 1.7-.8 1.1 0 1.7.4 1.7 1.5v3.1h-.8v-2.8c0-.7-.4-1.1-1.2-1.1s-1.4.3-1.4 1.3v2.6h-.8zm6.2 1.8c.1-.7.8-1.2 1.6-1.2s1.3.4 1.5 1.2zm4 .6v-.1c0-1.7-1.2-2.4-2.4-2.4-1.7 0-2.6 1.1-2.6 2.3 0 1.3.8 2.4 2.6 2.4.8 0 1.9-.4 2.3-1.5h-.9c-.3.5-.9.8-1.3.8-.8 0-1.6-.5-1.6-1.5zm1-3.7h.8v5.8h-.8z" fill="#e09142"/></g></svg>