<svg enable-background="new 0 0 64 64" viewBox="0 0 64 64" xmlns="http://www.w3.org/2000/svg"><path d="m1 32.4v-.3s.7.1.7-.8v-8.7c0-.4-.2-.9-.7-.9-.6 0-.9 0-.9 0v-.3h3.4c1.1 0 3.1 0 3.1 2.3 0 .9-.2 1.9-1.5 2.9 0 0 2.2.1 2.2 2.8 0 2-1.1 3.1-3.1 3.1s-1.6-.2-3.2-.1zm12.8-1.9c-.3 1.4-.8 1.3-1.2 1.3h-2.1c-.5 0-.6-.4-.6-.7v-3.6h1.3c.3 0 .5.1.5.4l.1.9h.2l-.1-2h-.3c-.1.2-.1.2-.3.2h-1.3v-2.9c0-.6.4-.6.7-.6h1.3c.4 0 .6.1.7.6s.2 1.4.2 1.4h.3s-.1-1.2-.2-1.7c0-.5.4-.5.4-.5v-.2h-5.8v.3h.9c.3 0 .5.2.5.5v7.4c0 .9-.6.7-.6.7v.3h5.3l.3-1.8zm19.8 0c-.3 1.4-.8 1.3-1.2 1.3h-2.1c-.5 0-.6-.4-.6-.7v-3.6h1.3c.3 0 .5.1.5.4s.1.9.1.9h.4l-.1-2h-.3c-.1.2-.1.2-.3.2h-1.4v-2.9c0-.6.4-.6.7-.6h1.3c.4 0 .6.1.7.6s.2 1.4.2 1.4h.3s-.1-1.2-.2-1.7c0-.5.4-.5.4-.5v-.2h-5.7v.3h.9c.3 0 .5.2.5.5v7.4c0 .9-.6.8-.6.8v.3h5.3l.3-1.8zm16.1 0c-.3 1.4-.8 1.3-1.2 1.3h-2.1c-.5 0-.6-.4-.6-.7v-3.6h1.3c.3 0 .5.1.5.4s.1.9.1.9h.2l-.1-2h-.3c-.1.2-.1.2-.3.2h-1.4v-2.9c0-.6.4-.6.7-.6h1.3c.4 0 .6.1.7.6s.2 1.4.2 1.4h.3s-.1-1.2-.2-1.7c0-.5.4-.5.4-.5v-.2h-5.7v.3h.9c.3 0 .5.2.5.5v7.4c0 .9-.6.8-.6.8v.3h5.3l.3-1.8zm14 0c-.3 1.4-.8 1.3-1.2 1.3h-2.1c-.5 0-.6-.4-.6-.7v-3.6h1.3c.3 0 .5.1.5.4l.1.9h.2l-.1-2h-.3c-.1.2-.1.2-.3.2h-1.4v-2.9c0-.6.4-.6.7-.6h1.3c.4 0 .6.1.7.6s.2 1.4.2 1.4h.3s-.1-1.2-.2-1.7c0-.5.4-.5.4-.5v-.2h-5.7v.3h.9c.3 0 .5.2.5.5v7.4c0 .9-.6.8-.6.8v.3h5.3l.3-1.8zm-43.5-.5h.3l-.5 2.3h-4.8v-.3s.6.1.6-.7v-7.3c0-.3-.1-.7-.6-.7h-.7v-.3h2.9v.3s-.6-.1-.6.6v6.9c0 .5 0 1.1.7 1.1h1.5c.2 0 .7 0 .9-.6.1-.7.3-1.3.3-1.3zm-.5-6.7v-.3h3v.3h-.8c-.3 0-.8 0-.5.8.2.8 2 6.6 2 6.6s2-6.2 2.2-6.7-.1-.7-.6-.7h-.8v-.3h1.3c.3 0 .5 0 .7-.6h.4l-3.2 10h-.4l-2.6-8.6c-.2-.4-.3-.5-.7-.5zm19 9h-3.5v-.3s.6.1.6-.7v-7.2c0-.4-.1-.8-.6-.8h-.8v-.3h5c1.7 0 3.8 1.2 3.8 4.7 0 2-1 4.6-4.5 4.6zm18.9.8c-.3-.4-2.6-4.2-3-4.9.9-.3 1.8-1.1 1.8-2.9 0-1.5-1-2.3-2.2-2.3h-3.9v.3h.7c.5 0 .7.3.7.7v7.4c0 .6-.6.6-.6.6v.3h3v-.3h-.8c-.4 0-.6-.4-.6-.8v-2.9h.9c.4.7 2.2 3.6 2.8 4.5.7 1.1 1.9 1.5 1.9 1.5l.1-.2c-.4-.3-.5-.5-.8-1zm-40.7 3.3-.7 4.2-.7-4.2h-.9l1.2 6.2h.7l1.2-6.2zm9 3c0-1.8-.4-3.2-1.6-3.2s-1.6 1.4-1.6 3.2.4 3.2 1.6 3.2 1.6-1.4 1.6-3.2zm6 3.2h-1v-6.2h1.1c.5 0 2 .3 2 3s-1.3 3.2-2.1 3.2zm17.8 0h.8l-1.4-6.2h-.8l-1.3 6.2h.8l.2-1.3h1.5zm-7.3 0-1.6-3.3 1.5-2.9h-.9l-1.4 2.8v-2.8h-.8v6.2h.8v-3.2l1.5 3.2z"/><path d="m5.6 23.8c0-2-1.6-2-2.1-2s-.7.1-.7.5v4.1h.9c1.6 0 1.9-1.6 1.9-2.6zm-1.7 3.2h-1.1v4.2c0 .6.4.7.6.7h.9c1.6 0 1.8-1.8 1.8-2.5 0-2.2-1.6-2.4-2.2-2.4zm32.9 4.1v-6.9c0-.3.1-.7 1.1-.7 1.1 0 4.2 0 4.2 4.3 0 2-.9 4.2-4 4.2-.4 0-1.3 0-1.3-.9zm16-6.9c0-.7.5-.8.8-.8 1.7 0 2 1.4 2 2.2 0 1.8-1.2 2.3-1.8 2.3h-1zm-27.8 15.2c0 1.4-.2 2.5-.8 2.5s-.8-1.1-.8-2.5.2-2.5.8-2.5.8 1.2.8 2.5zm6.7 2.5v-4.8s1.4-.2 1.4 2.3-1 2.5-1.4 2.5zm16.4-1.3.6-3.4.6 3.4z" fill="#fff"/></svg>