<svg enable-background="new 0 0 64 64" viewBox="0 0 64 64" xmlns="http://www.w3.org/2000/svg"><path d="m28.9 14.6c.3 0 .5-.3.7-.7.2-.6 1.3-1.6 2.8-1.6 1.1 0 2.3.7 3.2 1.4s1.6.7 1.6 1.1c0 .1-.2.2-.4.2-.9 0-2.4-1.3-4-1.3-1.8 0-3.3 1.6-3.3 2.5 0 .3.1.5.4.5.4 0 .8-.9 1.8-.9.9 0 1.7.9 3 .7.2 0 .2.2.1.3-2.6 1.5-5.4 2.9-5.4 7.5 0 3.6 2 7 6.4 7 4.6 0 6.8-3 6.8-7 0-3.5-2.1-6.7-4.9-6.7-.1 0-.2 0-.3 0-.2.1-.3.2-.3.4 0 .3.1.4.3.5 1.8 1.3 2.4 2.6 2.4 6.1 0 2.5-1 5.2-3.6 5.2-2.8 0-3.9-3-3.9-5.6 0-3.1.8-4.5 2.7-6 2.1-1.6 4.5-2.3 4.5-3.8 0-.7-.8-.8-1.2-.9-.4 0-1.1-.2-1.4-.6-1.3-1.3-2.8-2.7-4.5-2.7-2.5 0-4 2.7-4 3.7.1.3.2.7.5.7m25.2 3.9h.4c.1 0 .3.1.3.3.1.2.1.3.1.8v9c0 .5 0 .6-.1.8 0 .1-.2.3-.3.3h-.4c-.3 0-.5.2-.5.5 0 .4.2.6.9.6h7.8.4c.3 0 .4-.1.6-.4l.6-1.3c.1-.3.2-.5.2-.6 0-.3-.2-.5-.5-.5s-.4.1-.6.4c-.4.6-.8.9-1.2 1-.3.1-.9.1-1.9.1-1.1 0-1.5 0-1.7-.1-.3-.1-.4-.3-.4-1.4v-3.2c0-.4.1-.6.2-.7s.2-.1.8-.1h1.6c.5 0 .8-.2.8-.7s-.2-.7-.8-.7h-2.5v-2.6c0-1.1.1-1.2 1.2-1.2h1.3c1.3 0 1.6.1 2 .7.1.2.2.3.2.3.1.1.2.2.3.2s.1.1.2.1c.3 0 .5-.2.5-.5 0-.1 0-.2-.1-.3l-.6-1.5c-.1-.3-.3-.4-.7-.4h-7.7c-.7 0-.9.1-.9.6 0 .2.2.5.5.5m-.9 19.2c.6.7.8.8 2.7 2.2 1.1.8 1.7 1.2 2.1 1.7s.6 1 .6 1.5c0 1.1-.9 1.8-2.2 1.8-1.1 0-2.3-.6-2.9-1.6l-.3-.4c-.1-.2-.3-.3-.5-.3-.4 0-.6.3-.6.6 0 .1 0 .3.1.4l.5 2c.1.5.3.7.6.7.2 0 .3 0 .5-.2.1-.1.2-.1.4-.1.1 0 .2 0 .4.1.6.2 1.4.3 2.1.3 2.6 0 4.3-1.5 4.3-3.9 0-1-.4-2-1.1-2.7-.6-.7-1.2-1.1-2.7-2.2-.4-.3-.7-.5-1-.7-.4-.3-.7-.6-.9-.9-.2-.2-.2-.5-.2-.8 0-.8.6-1.3 1.5-1.3.7 0 1.3.2 1.9.6.4.3.5.4 1 1.1.2.3.3.3.5.3.3 0 .6-.2.6-.5 0-.1 0-.2 0-.3l-.6-2.2c-.1-.4-.3-.6-.6-.6-.2 0-.2 0-.4.2-.2.1-.3.2-.5.2-.1 0-.2 0-.3 0-.3-.1-.4-.1-.5-.1-.6-.1-1.2-.2-1.7-.2-2.2 0-3.7 1.3-3.7 3.2.1.8.4 1.5.9 2.1m-9.7-19.2h.4c.1 0 .3.1.3.3.1.2.1.2.1.8v9.1c0 .5 0 .6-.1.7 0 .1-.2.3-.3.3h-.4c-.3 0-.5.2-.5.5 0 .4.2.6.9.6h7.7c.6 0 .8-.1 1-.6l.6-1.5.1-.2c0-.1.1-.2.1-.2 0-.2-.2-.4-.5-.4-.2 0-.4.1-.6.4-.5.7-.7.9-1.1 1.1-.3.1-.6.1-1.8.1-1.4 0-1.8 0-2-.2-.3-.2-.4-.4-.4-1.3v-8.5c0-.5 0-.6.1-.8s.2-.3.4-.3h.5c.3 0 .5-.2.5-.6s-.2-.6-1-.6h-3.7c-.7 0-.9.1-.9.6s.3.7.6.7m-3.3 25.2c0 .5-.1.5-.7.6-.3 0-.5.2-.5.5 0 .2.1.3.2.4.7.5 3.1 1 5.1 1 2.2 0 3.7-.4 4.9-1.4 1.5-1.2 2.3-3.2 2.3-5.6 0-2.2-.6-4-1.8-5.2s-2.8-1.8-5.2-1.8c-2.3 0-4.6.4-5.3 1-.2.1-.3.3-.3.5 0 .3.2.5.6.5.5 0 .6.1.6.6v.4 7.9zm2.8-8.1c0-1.1 0-1.4.3-1.6s.9-.4 1.5-.4c2.4 0 3.8 2.1 3.8 5.6s-1.4 5.6-3.9 5.6c-.8 0-1.4-.2-1.6-.5 0-.1-.1-.3-.1-1.1zm-33.9-1.6c2.1 0 2.3.1 2.9.9.2.3.3.4.6.4s.5-.2.5-.5c0-.1 0-.2-.1-.3l-.5-1.4c-.1-.2-.2-.4-.3-.5s-.2-.1-.5-.1h-7.4c-.7 0-.9.1-.9.6 0 .3.2.6.5.6h.4c.1 0 .3.1.3.3 0 .1.1.3.1.8v9c0 .5 0 .6-.1.8s-.2.3-.3.3h-.4c-.3 0-.5.3-.5.6 0 .4.2.6.9.6h3.7c.7 0 1-.1 1-.6 0-.3-.2-.6-.5-.6h-.5c-.2 0-.3-.1-.4-.3-.1-.1-.1-.2-.1-.8v-4c0-.4 0-.5.2-.6.1 0 .2-.1.3-.1h2c.6 0 .9-.2.9-.7s-.3-.7-.9-.7h-2.5v-3c0-.7.1-.7 1.6-.7m51 13.7h-55.5c-1.7 0-3.1 1.4-3.1 3.1s1.4 3.1 3.1 3.1h55.5c1.7 0 3.1-1.4 3.1-3.1-.1-1.7-1.4-3.1-3.1-3.1m-48 4.2.1.1h.1c.1 0 .2.1.2.2 0 .2-.1.2-.3.2h-1.4c-.3 0-.3-.1-.3-.2s.1-.2.2-.2h.1l.1-.1c0-.1 0-.1 0-.3v-1.6l-1.3 1.3c-.1.1-.2.1-.3.1s-.1 0-.2-.1l-1.1-1.4v1.6.3l.2.2h.2c.1 0 .2.1.2.2 0 .2-.1.2-.4.2h-1c-.2 0-.3-.1-.3-.2-.1-.1 0-.2.1-.2h.1l.1-.1c0-.1 0-.1 0-.3v-1.8c0-.2 0-.3 0-.3l-.1-.1h-.1c-.1 0-.2-.1-.2-.2 0-.2.1-.2.3-.2h1.2c.1 0 .2 0 .4.2l1.1 1.2 1.3-1.3c.1-.1.2-.2.3-.2h.9c.2 0 .3.1.3.2s-.1.2-.2.2h-.2l-.1.1v.3 1.8zm9.6.5h-1.6c-.2 0-.2-.1-.2-.2 0-.2.1-.2.3-.2s.2-.1.1-.3v-.1c0-.1-.1-.1-.3-.1h-1.2c-.1 0-.2 0-.2 0l-.1.1c-.1.1 0 .3.2.3s.3.1.3.2-.1.2-.3.2h-1.3c-.2 0-.3-.1-.3-.2s.1-.2.2-.2.1-.1.2-.1c0 0 .1-.2.2-.3l1.2-2.4c.1-.3.4-.3.6-.3s.5.1.6.3l1.2 2.3c.2.4.2.4.3.5h.1c.1 0 .1.1.1.2.1.2.1.3-.1.3m9.4 0h-1c-.2 0-.3-.1-.5-.2l-1-1.2c-.1-.1-.1-.2-.1-.2 0-.1.1-.1.3-.2.5 0 .8-.2.8-.7s-.4-.7-.8-.7c-.2 0-.4 0-.4.1-.1.1-.1.2-.1.4v.3 1.6.3c0 .1.1.1.1.1h.2c.1 0 .2.1.2.2 0 .2-.1.2-.4.2h-1.4c-.2 0-.4-.1-.4-.2s.1-.2.2-.2h.1c.1 0 .1 0 .1-.1s0-.1 0-.3v-1.8c0-.2 0-.2-.2-.3-.2 0-.2-.1-.2-.2s0-.1.1-.2c.2-.2 1.2-.3 2-.3 1.3 0 2 .3 2 1 0 .4-.2.8-.9.9l.7.7c.3.3.4.4.7.4.2 0 .2 0 .2.1 0 0 .1.1.1.2-.1.2-.2.3-.4.3m6.8 0h-1.4c-.2 0-.3-.1-.3-.2s.1-.2.2-.2h.1c.1 0 .1 0 .1-.1s0-.1 0-.3v-1.8c0-.2 0-.3 0-.3 0-.1-.1-.1-.1-.1h-.1c-.1 0-.2-.1-.2-.2 0-.2.1-.2.3-.2h1.4c.3 0 .4.1.4.2s-.1.2-.2.2h-.2c-.1 0-.1 0-.1.1v.3 1.8.3l.1.1h.2c.1 0 .2.1.2.2 0 .2-.1.2-.4.2m3.1 0h-1c-.2 0-.3-.1-.4-.2l-1.4-1.4c-.1-.1-.1-.1-.1-.1l.1-.1 1-.9c.1-.1.1-.3 0-.3s-.1-.1-.1-.2.1-.2.2-.2h1.6c.2 0 .3.1.3.2s-.1.2-.3.2-.2 0-.4.1c-.1 0-.3.1-.4.2l-.9.8 1.1 1.1c.3.3.5.4.6.4.2 0 .3.1.3.2s-.1.2-.2.2m9-.8-.3.7c0 .1-.1.1-.2.1h-.2-3.1c-.3 0-.4-.1-.4-.2s.1-.2.2-.2h.2l.1-.1s0-.1 0-.3v-1.8c0-.2 0-.3 0-.3 0-.1-.1-.1-.1-.1h-.2c-.1 0-.2-.1-.2-.2 0-.2.1-.2.4-.2h3.1c.2 0 .2 0 .2.1l.2.6v.1c0 .1-.1.1-.3.1h-.1-.1l-.1-.1c-.1-.1-.3-.3-.8-.3h-.3c-.4 0-.5 0-.5.3v.6h1c.2 0 .3.1.3.3 0 .1-.1.3-.3.3h-.6c-.2 0-.3 0-.3 0s-.1.1-.1.2v.6c0 .3 0 .3.2.4h.7.7c.2 0 .4-.3.6-.5.1-.1.1-.1.2-.1s.2.1.2.1c-.1-.2-.1-.1-.1-.1m8.7-1.7c-.1 0-.1 0-.2-.1l-.1-.1c-.1-.1-.2-.3-.3-.3s-.2 0-.5 0c-.4 0-.4 0-.4.3v2 .3c0 .1.1.1.2.1h.2c.1 0 .2.1.2.2 0 .2-.1.2-.4.2h-1.5c-.3 0-.4-.1-.4-.2s.1-.2.2-.2h.3c.1 0 .1 0 .1-.1s0-.1 0-.3v-2c0-.2 0-.3-.5-.3-.4 0-.6.2-.7.4v.1c-.1.1-.1.1-.2.1s-.3-.1-.3-.1v-.1l.2-.6c0-.1.1-.1.3-.1h3.6.2l.1.1.3.6v.1c-.1-.1-.3 0-.4 0m-53.2-19.8c.3.8.6 1 1.1 1 .3 0 .5-.1.7-.2.2-.2.2-.3.4-.8l2-5.5 1.8 5.5c.2.7.5 1 1.1 1s.9-.3 1.2-1.3l3.2-10.3c.2-.7.4-.9.8-1h.1c.1 0 .3.1.3.3.1.1.1.2.1.8v9c0 .5 0 .6-.1.8 0 .1-.2.2-.3.2h-.4c-.3 0-.5.3-.5.6 0 .4.2.6.9.6h3.6c.6 0 .9-.1.9-.6 0-.3-.2-.6-.5-.6h-.4c-.2 0-.3-.1-.4-.2 0-.2-.1-.3-.1-.8v-3.7c0-.9.1-1 .8-1h2.7c.4 0 .6.1.7.2s.1.2.1.9v3.6c0 .5 0 .6-.1.8-.1.1-.2.2-.4.2h-.4c-.3 0-.5.3-.5.6 0 .4.2.6.9.6h3.6c.7 0 .9-.1.9-.6 0-.3-.2-.6-.5-.6h-.4c-.1 0-.3-.1-.3-.2-.1-.2-.1-.3-.1-.8v-9c0-.5 0-.6.1-.8 0-.1.2-.3.3-.3h.4c.3 0 .5-.2.5-.6s-.2-.6-.9-.6h-3.6c-.7 0-.9.1-.9.6 0 .3.2.6.5.6h.4c.1 0 .3.1.4.3.1.1.1.3.1.8v3h-4.3v-3c0-.5 0-.6.1-.8.1-.1.2-.3.4-.3h.4c.3 0 .5-.2.5-.6s-.2-.6-.9-.6h-6.6c-.5 0-.8.2-.8.6 0 .3.2.5.6.6.5.1.7.2.7.5 0 .1 0 .3-.1.5l-2.3 7.7-2.4-7.4c-.2-.5-.2-.7-.2-.8 0-.4.1-.5.7-.5.4-.1.6-.2.6-.5 0-.4-.2-.5-.7-.5h-3.8c-.5 0-.7.2-.7.6 0 .3.2.4.6.5.5.1.6.2.7.5 0 .1.1.2.2.5l.9 2.7-1.9 5.1-2.7-7.6-.2-.5c-.1-.2-.1-.3-.1-.4 0-.3.2-.5.6-.5.5 0 .7-.2.7-.5 0-.4-.2-.5-.7-.5h-3.9c-.5 0-.7.2-.7.5s.1.5.6.5c.6.1.7.2 1 1.1zm13.6 16.2c3.4 0 5.7-1.9 6.4-5.1.7 3.1 3 5.1 6.3 5.1 4 0 6.6-2.8 6.6-7.1 0-4.2-2.6-6.9-6.6-6.9-3.3 0-5.7 1.9-6.3 5-.7-3.1-3-5-6.4-5-4 0-6.6 2.7-6.6 7 .1 4.3 2.7 7 6.6 7m12.8-12.5c2.2 0 3.6 2.2 3.6 5.6s-1.4 5.5-3.6 5.5c-2.3 0-3.6-2.1-3.6-5.5 0-3.5 1.4-5.6 3.6-5.6m-12.7 0c2.2 0 3.6 2.2 3.6 5.6s-1.4 5.5-3.6 5.5c-2.3 0-3.6-2.1-3.6-5.5 0-3.5 1.4-5.6 3.6-5.6m.3 16.2c-.1-.1-.1-.2-.1-.3 0 .1-.1.2-.1.3l-.4.9-.1.1h.1.9.1l-.1-.1z" fill="#3f6f60"/></svg>